<?xml version="1.0" encoding="UTF-8" standalone="no"?>
<svg
   version="1.1"
   id="Layer_1"
   x="0px"
   y="0px"
   viewBox="0 0 122.88 122.88"
   style="enable-background:new 0 0 122.88 122.88"
   xml:space="preserve"
   sodipodi:docname="close.svg"
   inkscape:version="1.1.1 (3bf5ae0d25, 2021-09-20)"
   xmlns:inkscape="http://www.inkscape.org/namespaces/inkscape"
   xmlns:sodipodi="http://sodipodi.sourceforge.net/DTD/sodipodi-0.dtd"
   xmlns="http://www.w3.org/2000/svg"
   xmlns:svg="http://www.w3.org/2000/svg"><defs
     id="defs11" /><sodipodi:namedview
     id="namedview9"
     pagecolor="#ffffff"
     bordercolor="#666666"
     borderopacity="1.0"
     inkscape:pageshadow="2"
     inkscape:pageopacity="0.0"
     inkscape:pagecheckerboard="0"
     showgrid="false"
     inkscape:zoom="5.5501303"
     inkscape:cx="61.349911"
     inkscape:cy="61.349911"
     inkscape:window-width="1920"
     inkscape:window-height="1044"
     inkscape:window-x="0"
     inkscape:window-y="36"
     inkscape:window-maximized="1"
     inkscape:current-layer="Layer_1" /><style
     type="text/css"
     id="style2">.st0{fill-rule:evenodd;clip-rule:evenodd;}</style><g
     id="g6"
     style="fill:#7c7c7c;fill-opacity:1;stroke:none"
     transform="matrix(0.96108523,0,0,0.96108523,2.7143796,2.8347643)"><path
       class="st0"
       d="M 1.63,97.99 38.18,61.44 1.63,24.89 c -2.17,-2.17 -2.17,-5.73 0,-7.9 L 16.99,1.63 c 2.17,-2.17 5.73,-2.17 7.9,0 L 61.44,38.18 97.99,1.63 c 2.17,-2.17 5.73,-2.17 7.9,0 l 15.36,15.36 c 2.17,2.17 2.17,5.73 0,7.9 L 84.7,61.44 121.25,97.99 c 2.17,2.17 2.17,5.73 0,7.9 l -15.36,15.36 c -2.17,2.17 -5.73,2.17 -7.9,0 L 61.44,84.7 24.89,121.25 c -2.17,2.17 -5.73,2.17 -7.9,0 L 1.63,105.89 c -2.17,-2.17 -2.17,-5.73 0,-7.9 z"
       id="path4"
       style="fill:#7c7c7c;fill-opacity:1;stroke:none" /></g></svg>
