<?xml version="1.0" encoding="UTF-8" standalone="no"?>
<svg
   width="64"
   height="64"
   shape-rendering="geometricPrecision"
   text-rendering="geometricPrecision"
   image-rendering="optimizeQuality"
   fill-rule="evenodd"
   clip-rule="evenodd"
   viewBox="0 0 640 640"
   version="1.1"
   id="svg4"
   sodipodi:docname="linkedin.svg"
   inkscape:version="1.1.1 (3bf5ae0d25, 2021-09-20)"
   xmlns:inkscape="http://www.inkscape.org/namespaces/inkscape"
   xmlns:sodipodi="http://sodipodi.sourceforge.net/DTD/sodipodi-0.dtd"
   xmlns="http://www.w3.org/2000/svg"
   xmlns:svg="http://www.w3.org/2000/svg">
  <defs
     id="defs8" />
  <sodipodi:namedview
     id="namedview6"
     pagecolor="#ffffff"
     bordercolor="#666666"
     borderopacity="1.0"
     inkscape:pageshadow="2"
     inkscape:pageopacity="0.0"
     inkscape:pagecheckerboard="0"
     showgrid="false"
     inkscape:zoom="10.65625"
     inkscape:cx="31.953079"
     inkscape:cy="31.953079"
     inkscape:window-width="1920"
     inkscape:window-height="1044"
     inkscape:window-x="0"
     inkscape:window-y="36"
     inkscape:window-maximized="1"
     inkscape:current-layer="svg4" />
  <path
     d="M228.582 205.715h126.462v64.832h1.83c17.611-31.595 60.675-64.832 124.892-64.832C615.303 205.715 640 288.818 640 396.926v220.219H508.116V421.93c0-46.536-.969-106.442-68.576-106.442-68.67 0-79.194 50.658-79.194 103.052v198.605H228.581v-411.43zM137.152 91.43c0 37.855-30.721 68.576-68.576 68.576-37.855 0-68.587-30.721-68.587-68.576 0-37.855 30.732-68.576 68.587-68.576 37.855 0 68.576 30.721 68.576 68.576zM-.011 205.715h137.163v411.43H-.011v-411.43z"
     id="path2"
     style="fill:#ffffff" />
</svg>
