<?xml version="1.0" encoding="UTF-8" standalone="no"?>
<svg
   width="64"
   height="64"
   shape-rendering="geometricPrecision"
   text-rendering="geometricPrecision"
   image-rendering="optimizeQuality"
   fill-rule="evenodd"
   clip-rule="evenodd"
   viewBox="0 0 640 640"
   version="1.1"
   id="svg4"
   sodipodi:docname="reddit.svg"
   inkscape:version="1.1.1 (3bf5ae0d25, 2021-09-20)"
   xmlns:inkscape="http://www.inkscape.org/namespaces/inkscape"
   xmlns:sodipodi="http://sodipodi.sourceforge.net/DTD/sodipodi-0.dtd"
   xmlns="http://www.w3.org/2000/svg"
   xmlns:svg="http://www.w3.org/2000/svg">
  <defs
     id="defs8" />
  <sodipodi:namedview
     id="namedview6"
     pagecolor="#ffffff"
     bordercolor="#666666"
     borderopacity="1.0"
     inkscape:pageshadow="2"
     inkscape:pageopacity="0.0"
     inkscape:pagecheckerboard="0"
     showgrid="false"
     inkscape:zoom="10.65625"
     inkscape:cx="31.953079"
     inkscape:cy="31.953079"
     inkscape:window-width="1920"
     inkscape:window-height="1044"
     inkscape:window-x="0"
     inkscape:window-y="36"
     inkscape:window-maximized="1"
     inkscape:current-layer="svg4" />
  <path
     d="M160.018 360.052c0-22.087 17.918-40.004 40.004-40.004 22.087 0 39.993 17.917 39.993 40.004 0 22.087-17.906 40.004-39.993 40.004-22.086 0-40.004-17.917-40.004-40.004zm239.991 0c0-22.087 17.918-40.004 40.004-40.004 22.087 0 40.005 17.917 40.005 40.004 0 22.087-17.918 40.004-40.005 40.004-22.086 0-40.004-17.917-40.004-40.004zm1.949 85.477c10.323-8.114 25.252-6.366 33.366 3.957 8.115 10.323 6.367 25.252-3.956 33.367-28.678 22.606-72.403 37.205-111.32 37.205-38.906 0-82.631-14.599-111.356-37.205-10.323-8.115-12.071-23.044-3.957-33.367 8.114-10.323 23.044-12.07 33.367-3.957 16.523 13.005 49.193 27 81.945 27 32.765 0 65.446-13.996 81.958-27h-.047zM640 280.055c0-44.209-35.8-80.008-79.997-80.008-30.083 0-56.245 16.606-69.922 41.126-41.115-22.477-91.206-37.04-145.797-40.394L392 93.58l91.347 26.362c8.245 23.327 30.438 40.076 56.611 40.076 33.119 0 60.001-26.883 60.001-60.001 0-33.119-26.882-60-60-60-22.843 0-42.733 12.755-52.844 31.57l-101.8-29.41c-11.398-3.283-23.48 2.316-28.288 13.158l-64.843 145.62c-53.197 3.768-102.037 18.13-142.266 40.158-13.689-24.52-39.839-41.126-69.922-41.126-44.21 0-79.997 35.8-79.997 80.009 0 32.681 19.63 60.804 47.705 73.194-5.031 15-7.724 30.673-7.724 46.807 0 110.434 125.352 199.987 279.996 199.987 154.644 0 279.996-89.552 279.996-199.987 0-16.122-2.681-31.795-7.725-46.807 28.123-12.39 47.706-40.513 47.706-73.194l.047.059zM539.995 77.588c12.449 0 22.536 10.075 22.536 22.524 0 12.438-10.087 22.524-22.536 22.524-12.437 0-22.524-10.086-22.524-22.524 0-12.449 10.087-22.524 22.524-22.524zM40.015 280.055c0-22.04 17.954-40.004 39.993-40.004 15.97 0 29.73 9.354 36.166 22.914-20.93 15.85-38.233 34.17-51.036 54.201-14.728-5.929-25.122-20.315-25.122-37.11zm279.997 272.507c-128.4 0-232.515-68.268-232.515-152.518 0-84.249 104.068-152.529 232.515-152.529 128.387 0 232.503 68.28 232.503 152.53 0 84.248-104.068 152.517-232.503 152.517zm254.86-235.397c-12.802-20.079-30.106-38.35-51.035-54.201 6.437-13.512 20.197-22.914 36.166-22.914 22.04 0 40.004 17.965 40.004 40.005 0 16.795-10.406 31.205-25.134 37.11z"
     id="path2"
     style="fill:#ffffff" />
</svg>
