<?xml version="1.0" encoding="UTF-8" standalone="no"?>
<svg
   id="Layer_1"
   data-name="Layer 1"
   viewBox="0 0 122.88 122.88"
   version="1.1"
   sodipodi:docname="share.svg"
   inkscape:version="1.1.1 (3bf5ae0d25, 2021-09-20)"
   xmlns:inkscape="http://www.inkscape.org/namespaces/inkscape"
   xmlns:sodipodi="http://sodipodi.sourceforge.net/DTD/sodipodi-0.dtd"
   xmlns="http://www.w3.org/2000/svg"
   xmlns:svg="http://www.w3.org/2000/svg">
  <defs
     id="defs9" />
  <sodipodi:namedview
     id="namedview7"
     pagecolor="#ffffff"
     bordercolor="#666666"
     borderopacity="1.0"
     inkscape:pageshadow="2"
     inkscape:pageopacity="0.0"
     inkscape:pagecheckerboard="0"
     showgrid="false"
     inkscape:zoom="5.5501303"
     inkscape:cx="61.349911"
     inkscape:cy="61.349911"
     inkscape:window-width="1920"
     inkscape:window-height="1044"
     inkscape:window-x="0"
     inkscape:window-y="36"
     inkscape:window-maximized="1"
     inkscape:current-layer="Layer_1" />
  <title
     id="title2">share-round-line</title>
  <path
     d="M 73.063442,91.161869 43.606898,77.611859 C 29.550144,93.963962 2.7403941,84.937541 1.4313394,63.416681 0.12228468,41.895822 25.640318,29.686444 41.575412,44.214228 L 72.860295,31.151775 C 72.673987,29.907634 72.578936,28.651534 72.575887,27.393527 72.575656,14.198528 83.230767,3.4798851 96.425533,3.4016772 v 0 C 113.10625,3.3434391 124.76271,19.892145 119.09056,35.57882 113.41841,51.265499 93.873724,56.532194 81.087814,45.819103 L 49.213798,59.023761 c 0.108336,0.92094 0.169284,1.835109 0.182834,2.742506 l 33.133536,15.33772 c 20.482002,-14.388363 46.471202,8.39809 34.916972,30.582223 -11.55423,22.18413 -45.123154,13.95073 -45.074402,-11.079959 0.0064,-1.832584 0.217714,-3.658708 0.629761,-5.444382 z"
     id="path4"
     sodipodi:nodetypes="ccscccsssccccsccc"
     style="fill:#7c7c7c;fill-opacity:1;stroke:none;stroke-width:2.03149" />
</svg>
