<?xml version="1.0" encoding="UTF-8" standalone="no"?>
<svg
   width="64"
   height="64"
   shape-rendering="geometricPrecision"
   text-rendering="geometricPrecision"
   image-rendering="optimizeQuality"
   fill-rule="evenodd"
   clip-rule="evenodd"
   viewBox="0 0 640 640"
   version="1.1"
   id="svg4"
   sodipodi:docname="twitter.svg"
   inkscape:version="1.1.1 (3bf5ae0d25, 2021-09-20)"
   xmlns:inkscape="http://www.inkscape.org/namespaces/inkscape"
   xmlns:sodipodi="http://sodipodi.sourceforge.net/DTD/sodipodi-0.dtd"
   xmlns="http://www.w3.org/2000/svg"
   xmlns:svg="http://www.w3.org/2000/svg">
  <defs
     id="defs8" />
  <sodipodi:namedview
     id="namedview6"
     pagecolor="#ffffff"
     bordercolor="#666666"
     borderopacity="1.0"
     inkscape:pageshadow="2"
     inkscape:pageopacity="0.0"
     inkscape:pagecheckerboard="0"
     showgrid="false"
     inkscape:zoom="10.65625"
     inkscape:cx="31.953079"
     inkscape:cy="31.953079"
     inkscape:window-width="1920"
     inkscape:window-height="1044"
     inkscape:window-x="0"
     inkscape:window-y="36"
     inkscape:window-maximized="1"
     inkscape:current-layer="svg4" />
  <path
     d="M640.012 121.513c-23.528 10.524-48.875 17.516-75.343 20.634 27.118-16.24 47.858-41.977 57.756-72.615-25.347 14.988-53.516 25.985-83.363 31.866-24-25.5-58.087-41.35-95.848-41.35-72.508 0-131.21 58.736-131.21 131.198 0 10.228 1.134 20.232 3.355 29.882-109.1-5.528-205.821-57.757-270.57-137.222a131.423 131.423 0 0 0-17.764 66c0 45.497 23.102 85.738 58.347 109.207-21.508-.638-41.74-6.638-59.505-16.359v1.642c0 63.627 45.225 116.718 105.32 128.718-11.008 2.988-22.63 4.642-34.606 4.642-8.48 0-16.654-.874-24.78-2.35 16.783 52.11 65.233 90.095 122.612 91.205-44.989 35.245-101.493 56.233-163.09 56.233-10.63 0-20.988-.65-31.334-1.89 58.229 37.359 127.206 58.997 201.31 58.997 241.42 0 373.552-200.069 373.552-373.54 0-5.764-.13-11.35-.366-16.996 25.642-18.343 47.87-41.493 65.469-67.844l.059-.059z"
     id="path2"
     style="fill:#ffffff" />
</svg>
